<?xml version="1.0" encoding="UTF-8"?>
<svg width="25px" height="25px" viewBox="0 0 25 25" version="1.1" xmlns="http://www.w3.org/2000/svg" xmlns:xlink="http://www.w3.org/1999/xlink">
    <!-- Generator: Sketch 50.2 (55047) - http://www.bohemiancoding.com/sketch -->
    <title>icon-ev-edges</title>
    <desc>Created with Sketch.</desc>
    <defs></defs>
    <g id="icon-ev-edges" stroke="none" stroke-width="1" fill="none" fill-rule="evenodd">
        <path d="M12.4889785,5 L0,12.2267473 L12.5591398,19.5938172 L24.977957,12.2267473 L12.4889785,5 Z M3.78427419,12.2379032 L12.4889785,7.20094086 L21.2096774,12.2471774 L12.5537634,17.3819892 L3.78427419,12.2379032 Z M11.6885349,11.7279032 C11.3062769,11.4717204 10.7357124,11.0479301 10.3710618,10.7770968 L10.3334274,10.8047849 C10.5205242,11.1480645 10.6775134,11.4976613 10.854664,11.8608333 L11.5659543,13.9127151 L13.177379,12.7258871 L11.6885349,11.7279032 Z M14.2197177,11.958414 L14.9920296,11.3895968 L15.9124597,12.0066667 L15.1401478,12.5753495 L16.8353091,13.7116398 L15.7931048,14.4791129 L14.0979435,13.342957 L11.3866532,15.3395968 L10.5792608,14.7984677 L8.93813172,10.2773656 L10.2597715,9.3041129 L14.2197177,11.958414 Z" id="Fill-1" fill="#7B7BDD"></path>
    </g>
</svg>