<?xml version="1.0" encoding="UTF-8"?>
<svg width="37px" height="37px" viewBox="0 0 37 37" version="1.1" xmlns="http://www.w3.org/2000/svg" xmlns:xlink="http://www.w3.org/1999/xlink">
    <!-- Generator: Sketch 50.2 (55047) - http://www.bohemiancoding.com/sketch -->
    <title>icon-face-id</title>
    <desc>Created with Sketch.</desc>
    <defs></defs>
    <g id="icon-face-id" stroke="none" stroke-width="1" fill="none" fill-rule="evenodd">
        <path d="M14.9488804,13.2117838 L14.9488804,13.9932625 L14.9488804,14.6300593 L14.6601304,14.3502873 L13.3662174,15.9936785 L12.0437717,17.6730801 L11.141163,18.8195606 L12.153337,19.8812476 C13.7876848,21.5952744 16.0588804,22.5013787 18.7212174,22.5013787 C22.8993696,22.5013787 25.9319783,20.0112847 25.9319783,16.580615 C25.9319783,16.1059302 25.8714213,15.649529 25.7547157,15.2165201 L36.5,21.4401403 L18.5285261,33.0848806 L0.5,21.2927385 L14.9488804,13.2117838 Z" id="Fill-1" fill="#F59EB5"></path>
        <path d="M18.6250217,5.77769108 C21.5585,5.77769108 23.5781196,7.13946366 23.5781196,9.59046965 C23.5781196,11.2018518 22.5683913,12.2912391 20.9092609,12.9040291 L20.9092609,12.9948242 C22.7126848,13.4486458 24.0832283,14.6742257 24.0832283,16.580615 C24.0832283,19.2132112 21.6546957,20.7564201 18.7212174,20.7564201 C16.244587,20.7564201 14.609587,19.8487769 13.5274674,18.713992 L14.849913,17.0344366 C15.7637717,17.9196119 16.9419239,18.623043 18.4807283,18.623043 C20.1398587,18.623043 21.2940435,17.806041 21.2940435,16.4444223 C21.2940435,14.9464571 20.2839891,13.9932625 16.7976304,13.9932625 L16.7976304,12.0868732 C19.8031739,12.0868732 20.7890978,11.1110567 20.7890978,9.77205985 C20.7890978,8.56925563 19.923337,7.84304873 18.5288261,7.84304873 C17.3267065,7.84304873 16.3888804,8.38766543 15.4510543,9.20466743 L14.032413,7.59328527 C15.3308913,6.50389798 16.7976304,5.77769108 18.6250217,5.77769108" id="Fill-4" fill="#666666"></path>
    </g>
</svg>