<?xml version="1.0" encoding="UTF-8"?>
<svg width="25px" height="25px" viewBox="0 0 25 25" version="1.1" xmlns="http://www.w3.org/2000/svg" xmlns:xlink="http://www.w3.org/1999/xlink">
    <!-- Generator: Sketch 50.2 (55047) - http://www.bohemiancoding.com/sketch -->
    <title>icon-ev-dihedral</title>
    <desc>Created with Sketch.</desc>
    <defs></defs>
    <g id="icon-ev-dihedral" stroke="none" stroke-width="1" fill="none" fill-rule="evenodd">
        <path d="M7.50111765,10.9243204 C8.55164813,11.0168252 10.0500052,11.3592103 11.3850958,12.4446385 C12.8122121,13.6051335 13.7173371,15.3097802 14.0846443,17.522972 L18.7218235,17.522972 C19.4125294,17.522972 19.9724706,18.1054283 19.9724706,18.8239073 C19.9724706,19.5423864 19.4125294,20.1248427 18.7218235,20.1248427 L5,20.1248427 L5,5.30093531 C5,4.58245629 5.55976471,4 6.25047059,4 C6.94117647,4 7.50111765,4.58245629 7.50111765,5.30093531 L7.50111765,10.9243204 Z M7.50111765,13.7476365 L7.50111765,17.522972 L11.2189117,17.522972 C10.9338332,16.2364195 10.3945453,15.2652 9.60829585,14.6259111 C8.90558006,14.0545452 8.10859964,13.8305145 7.50111765,13.7476365 Z" id="Fill-1" fill="#7B7BDD"></path>
    </g>
</svg>