<?xml version="1.0" encoding="UTF-8"?>
<svg width="37px" height="37px" viewBox="0 0 37 37" version="1.1" xmlns="http://www.w3.org/2000/svg" xmlns:xlink="http://www.w3.org/1999/xlink">
    <!-- Generator: Sketch 50.2 (55047) - http://www.bohemiancoding.com/sketch -->
    <title>icon-vertex-id</title>
    <desc>Created with Sketch.</desc>
    <defs></defs>
    <g id="icon-vertex-id" stroke="none" stroke-width="1" fill="none" fill-rule="evenodd">
        <polygon id="Fill-1" fill="#1E9CD8" points="7 19.4788462 29.8163462 32.59375 30.9480769 30.6246795 11.7774038 19.6051282 30.6871795 10.0261218 29.6607372 8"></polygon>
        <path d="M9.58612981,15.8054968 C11.3387923,15.8054968 12.7595032,17.2262077 12.7595032,18.9788702 C12.7595032,20.7315327 11.3387923,22.1522436 9.58612981,22.1522436 C7.83346733,22.1522436 6.41275641,20.7315327 6.41275641,18.9788702 C6.41275641,17.2262077 7.83346733,15.8054968 9.58612981,15.8054968" id="Fill-2" fill="#F59EB5"></path>
        <path d="M6.75320513,10.8589904 C7.26602564,11.3878365 7.92307692,11.8045032 8.78846154,11.8045032 C9.71794872,11.8045032 10.3589744,11.323734 10.3589744,10.5064263 C10.3589744,9.62501603 9.79807692,9.04809295 7.84294872,9.04809295 L7.84294872,7.91027244 C9.52564103,7.91027244 10.0705128,7.33334936 10.0705128,6.53206731 C10.0705128,5.81091346 9.58974359,5.39424679 8.80448718,5.39424679 C8.13141026,5.39424679 7.6025641,5.71475962 7.07371795,6.19552885 L6.2724359,5.23399038 C6.99358974,4.59296474 7.82692308,4.16027244 8.83653846,4.16027244 C10.4711538,4.16027244 11.6089744,4.96155449 11.6089744,6.41988782 C11.6089744,7.38142628 11.0480769,8.02245192 10.1185897,8.39104167 L10.1185897,8.43911859 C11.1282051,8.71155449 11.8974359,9.43270833 11.8974359,10.5705288 C11.8974359,12.125016 10.5352564,13.0545032 8.90064103,13.0545032 C7.50641026,13.0545032 6.59294872,12.5096314 6,11.8365545 L6.75320513,10.8589904 Z" id="Fill-4" fill="#666666"></path>
    </g>
</svg>