<?xml version="1.0" encoding="UTF-8"?>
<svg width="45px" height="45px" viewBox="0 0 45 45" version="1.1" xmlns="http://www.w3.org/2000/svg" xmlns:xlink="http://www.w3.org/1999/xlink">
    <!-- Generator: Sketch 50.2 (55047) - http://www.bohemiancoding.com/sketch -->
    <title>icon_move</title>
    <desc>Created with Sketch.</desc>
    <defs></defs>
    <g id="icon_move" stroke="none" stroke-width="1" fill="none" fill-rule="evenodd">
        <path d="M22.1396566,8 L17.2273869,14.7979481 L20.4679648,14.7979481 L20.4679648,19.7146147 L23.811139,19.7146147 L23.811139,14.7979481 L27.0519263,14.7979481 L22.1396566,8 Z M30.2022613,21.3285176 L25.2855946,21.3285176 L25.2855946,24.6716918 L30.2022613,24.6716918 L30.2022613,27.9122697 L37,23 L30.2022613,18.0877303 L30.2022613,21.3285176 Z M7.13965662,23 L13.9376047,27.9122697 L13.9376047,24.6716918 L18.8542714,24.6716918 L18.8542714,21.3285176 L13.9376047,21.3285176 L13.9376047,18.0877303 L7.13965662,23 Z M20.4679648,26.2853853 L20.4679648,31.2020519 L17.2273869,31.2020519 L22.1396566,38 L27.0519263,31.2020519 L23.811139,31.2020519 L23.811139,26.2853853 L20.4679648,26.2853853 Z" id="Page-1" fill="#1F9BD6"></path>
    </g>
</svg>