<?xml version="1.0" encoding="UTF-8"?>
<svg width="45px" height="45px" viewBox="0 0 45 45" version="1.1" xmlns="http://www.w3.org/2000/svg" xmlns:xlink="http://www.w3.org/1999/xlink">
    <!-- Generator: Sketch 50.2 (55047) - http://www.bohemiancoding.com/sketch -->
    <title>icon_colors</title>
    <desc>Created with Sketch.</desc>
    <defs></defs>
    <g id="icon_colors" stroke="none" stroke-width="1" fill="none" fill-rule="evenodd">
        <path d="M15.7,9 L30.6,23.7111846 C31.575,24.6738292 31.575,26.237124 30.6,27.1997686 L21.4332812,36.2502479 C20.95,36.7357355 20.3082812,36.974314 19.6666406,36.974314 C19.025,36.974314 18.3833594,36.7356584 17.9,36.2502479 L8.73335937,27.1997686 C7.75835937,26.237124 7.75835937,24.6738292 8.73335937,23.7111846 L17.3082812,15.2448485 L13.3416406,11.3284738 L15.7,9 Z M11.675,25.455438 L27.6582812,25.455438 L19.6666406,17.5732452 L11.675,25.455438 Z M34.6666406,27.9237576 C34.6666406,27.9237576 38,31.4863912 38,33.6831956 C38,35.5014986 36.5083594,36.974314 34.6666406,36.974314 C32.8249219,36.974314 31.3332812,35.5014986 31.3332812,33.6831956 C31.3332812,31.4863912 34.6666406,27.9237576 34.6666406,27.9237576 Z" id="Shape" fill="#0F9DDD" fill-rule="nonzero"></path>
    </g>
</svg>