<?xml version="1.0" encoding="UTF-8"?>
<svg width="45px" height="45px" viewBox="0 0 45 45" version="1.1" xmlns="http://www.w3.org/2000/svg" xmlns:xlink="http://www.w3.org/1999/xlink">
    <!-- Generator: Sketch 50.2 (55047) - http://www.bohemiancoding.com/sketch -->
    <title>icon_import_selection</title>
    <desc>Created with Sketch.</desc>
    <defs></defs>
    <g id="icon_import_selection" stroke="none" stroke-width="1" fill="none" fill-rule="evenodd">
        <polygon id="Fill-1" fill="#0F9DDD" transform="translate(23.250500, 16.889000) scale(1, -1) translate(-23.250500, -16.889000) " points="23.2510004 25.778 28.1510004 20.878 24.4760004 20.878 24.4760004 8 22.0260004 8 22.0260004 20.878 18.3500004 20.878"></polygon>
        <path d="M15.8568486,36 L19.3048404,36 L19.3048404,33.8987567 L15.8568486,33.8987567 L15.8568486,36 Z M21.2821833,36 L24.7301751,36 L24.7301751,33.8987567 L21.2821833,33.8987567 L21.2821833,36 Z M26.707518,36 L26.707518,33.8987567 L30.1555098,33.8987567 L30.1555098,36 L26.707518,36 Z M33.961895,36 L32.1328527,36 L32.1328527,33.8987567 L32.9237899,33.8987567 L32.9237899,33.1030195 L35,33.1030195 L35,34.9431616 C35,35.5275311 34.5427394,36 33.961895,36 Z M13.8795057,36 L12.0504634,36 C11.4696189,36 11,35.5275311 11,34.9431616 L11,33.1030195 L13.0885685,33.1030195 L13.0885685,33.8987567 L13.8795057,33.8987567 L13.8795057,36 Z M11.0123584,24.3250444 L13.1009269,24.3250444 L13.1009269,20.2344583 L11.0123584,20.2344583 L11.0123584,24.3250444 Z M11.0123584,30.7655417 L13.1009269,30.7655417 L13.1009269,26.6749556 L11.0123584,26.6749556 L11.0123584,30.7655417 Z M32.9114315,24.3250444 L35,24.3250444 L35,20.2344583 L32.9114315,20.2344583 L32.9114315,24.3250444 Z M32.9114315,30.7655417 L32.9114315,26.6749556 L35,26.6749556 L35,30.7655417 L32.9114315,30.7655417 Z M35,17.8969805 L32.9114315,17.8969805 L32.9114315,17.1012433 L32.1204943,17.1012433 L32.1204943,15 L33.9495366,15 C34.5303811,15 35,15.4724689 35,16.0568384 L35,17.8969805 Z M15.8568486,17.1012433 L19.3048404,17.1012433 L19.3048404,15 L15.8568486,15 L15.8568486,17.1012433 Z M26.707518,17.1012433 L26.707518,15 L30.1555098,15 L30.1555098,17.1012433 L26.707518,17.1012433 Z M13.1009269,17.8969805 L11.0123584,17.8969805 L11.0123584,16.0568384 C11.0123584,15.4724689 11.4819773,15 12.0628218,15 L13.8918641,15 L13.8918641,17.1012433 L13.1009269,17.1012433 L13.1009269,17.8969805 Z" id="Fill-9" fill="#1B9CD8"></path>
    </g>
</svg>