<?xml version="1.0" encoding="UTF-8"?>
<svg width="45px" height="45px" viewBox="0 0 45 45" version="1.1" xmlns="http://www.w3.org/2000/svg" xmlns:xlink="http://www.w3.org/1999/xlink">
    <!-- Generator: Sketch 50.2 (55047) - http://www.bohemiancoding.com/sketch -->
    <title>icon_rotate</title>
    <desc>Created with Sketch.</desc>
    <defs></defs>
    <g id="icon_rotate" stroke="none" stroke-width="1" fill="none" fill-rule="evenodd">
        <path d="M24.3125,12.4375 C26.9375131,12.770835 29.1562409,13.93749 30.96875,15.9375 C32.7812591,17.93751 33.6875,20.2916531 33.6875,23 C33.6875,25.7083469 32.7812591,28.06249 30.96875,30.0625 C29.1562409,32.06251 26.9375131,33.229165 24.3125,33.5625 L24.3125,30.875 C26.2291763,30.541665 27.8229103,29.6354241 29.09375,28.15625 C30.3645897,26.6770759 31,24.9583431 31,23 C31,21.0416569 30.3645897,19.3229241 29.09375,17.84375 C27.8229103,16.3645759 26.2291763,15.458335 24.3125,15.125 L24.3125,20.3125 L18.25,14.375 L24.3125,8.3125 L24.3125,12.4375 Z M16.4375,31.4375 L18.375,29.5 C19.3333381,30.2083369 20.4374938,30.6666656 21.6875,30.875 L21.6875,33.5625 C19.68749,33.3124988 17.9375075,32.6041725 16.4375,31.4375 Z M15.125,24.3125 C15.3333344,25.5208394 15.77083,26.624995 16.4375,27.625 L14.5625,29.5 C13.3958275,27.9583256 12.6875013,26.2291763 12.4375,24.3125 L15.125,24.3125 Z M16.5,18.375 C15.7499963,19.4583387 15.2916675,20.5624944 15.125,21.6875 L12.4375,21.6875 C12.6875013,19.8124906 13.4166606,18.0833413 14.625,16.5 L16.5,18.375 Z" id="border_left" fill="#0F9DDD"></path>
    </g>
</svg>