<?xml version="1.0" encoding="UTF-8"?>
<svg width="16px" height="17px" viewBox="0 0 16 17" version="1.1" xmlns="http://www.w3.org/2000/svg" xmlns:xlink="http://www.w3.org/1999/xlink">
    <!-- Generator: Sketch 50.2 (55047) - http://www.bohemiancoding.com/sketch -->
    <title>Fill 1</title>
    <desc>Created with Sketch.</desc>
    <defs></defs>
    <g id="HOME3" stroke="none" stroke-width="1" fill="none" fill-rule="evenodd">
        <g id="02" transform="translate(-891.000000, -223.000000)" fill="#7B7BDD">
            <g id="Page-1" transform="translate(891.000000, 223.000000)">
                <path d="M6.1697174,10.5478789 C6.68367712,11.0436421 7.31946818,11.4054152 8.049832,11.4054152 C8.88839786,11.4054152 9.44303739,11.0436421 9.44303739,10.4003867 C9.44303739,9.65004239 8.99659991,9.18107719 7.13001056,9.18107719 L7.13001056,7.78758058 C8.67199377,7.78758058 9.15890298,7.33201438 9.15890298,6.64856201 C9.15890298,6.05900575 8.78019581,5.7106316 8.10393302,5.7106316 C7.49529651,5.7106316 7.03533377,5.99201072 6.49432354,6.46097593 L5.49345461,5.25496233 C6.27791944,4.58501204 7.14353582,4.16964286 8.19860981,4.16964286 C9.97041833,4.16964286 11.1607449,5.0138833 11.1607449,6.50117295 C11.1607449,7.38550733 10.6467852,8.00196467 9.72696372,8.39043277 L9.72696372,8.44413187 C10.7144114,8.72551099 11.43125,9.4222593 11.43125,10.5209778 C11.43125,12.1021635 9.97041833,13 8.23918558,13 C6.84598019,13 5.87216177,12.5175327 5.25,11.7939864 L6.1697174,10.5478789 Z M0,0.00293664739 L5.3125,0.00293664739 L5.3125,1.6548008 L1.55910326,1.6548008 L1.55910326,5.3125 L0.0577445652,5.3125 C0.0577445652,5.3125 0.144361413,-0.144551224 0,0.00293664739 Z M15.9345634,-1.0658141e-14 L15.9345634,5.3125 L14.2826992,5.3125 L14.2826992,1.55910326 L10.625,1.55910326 L10.625,0.0577445652 C10.625,0.0577445652 16.0820512,0.144361413 15.9345634,-1.0658141e-14 Z M0.00293664739,17 L0.00293664739,11.6875 L1.6548008,11.6875 L1.6548008,15.4408967 L5.3125,15.4408967 L5.3125,16.9422554 C5.3125,16.9422554 -0.144551224,16.8556386 0.00293664739,17 Z M16,16.9970634 L10.6875,16.9970634 L10.6875,15.3451992 L14.4408967,15.3451992 L14.4408967,11.6875 L15.9422554,11.6875 C15.9422554,11.6875 15.8556386,17.1445512 16,16.9970634 Z" id="Fill-1"></path>
            </g>
        </g>
    </g>
</svg>