<?xml version="1.0" encoding="UTF-8"?>
<svg width="15px" height="15px" viewBox="0 0 15 15" version="1.1" xmlns="http://www.w3.org/2000/svg" xmlns:xlink="http://www.w3.org/1999/xlink">
    <!-- Generator: Sketch 50.2 (55047) - http://www.bohemiancoding.com/sketch -->
    <title>img-angle</title>
    <desc>Created with Sketch.</desc>
    <defs></defs>
    <g id="HOME3" stroke="none" stroke-width="1" fill="none" fill-rule="evenodd">
        <g id="02" transform="translate(-893.000000, -187.000000)" fill="#7B7BDD">
            <g id="Group-15" transform="translate(879.000000, 176.000000)">
                <g id="Group-11" transform="translate(14.000000, 8.000000)">
                    <path d="M7.03941285,15.0503438 C7.16196285,13.3735902 6.82670892,13.1241534 6.04287824,12.4164729 C5.65902138,12.0698433 5.25793776,11.9221373 5.04235753,11.8633813 L3.13340625,15.0503438 L7.03941443,15.0503438 Z M6.21677307,9.90271404 C6.52871552,10.0571691 6.87371793,10.2750358 7.21350924,10.58177 C8.1211294,11.4012103 9.15182351,12.0814539 8.98135132,15.0503438 L13.817558,15.0503438 C14.4464866,15.0503438 14.9564866,15.5525808 14.9564866,16.1722307 C14.9564866,16.7918806 14.4464866,17.2941176 13.817558,17.2941176 L1.13894196,17.2941176 C0.730058036,17.2941176 0.352647321,17.078289 0.149879464,16.7285568 C-0.0527544643,16.3789566 -0.0496741071,15.9490143 0.158049107,15.6021845 L6.90068304,4.34545288 C7.22037054,3.81181782 7.91894196,3.63451114 8.46041518,3.94928327 C9.00215625,4.2640554 9.18229018,4.95191034 8.86260268,5.4855454 L6.21677307,9.90271404 Z" id="img-angle"></path>
                </g>
            </g>
        </g>
    </g>
</svg>